<svg xmlns="http://www.w3.org/2000/svg" viewBox="0 0 512 512" fill="none">
  <rect width="512" height="512" rx="96" fill="#3730a3"/>
  <g transform="translate(256,240)" stroke="#fff" stroke-width="24" stroke-linecap="round">
    <line x1="0" y1="0" x2="0" y2="120"/>
    <line x1="0" y1="40" x2="-70" y2="-30"/>
    <line x1="0" y1="40" x2="70" y2="-30"/>
    <line x1="0" y1="0" x2="0" y2="-60"/>
    <line x1="-70" y1="-30" x2="-110" y2="-80"/>
    <line x1="-70" y1="-30" x2="-40" y2="-90"/>
    <line x1="70" y1="-30" x2="40" y2="-90"/>
    <line x1="70" y1="-30" x2="110" y2="-80"/>
  </g>
  <circle cx="256" cy="180" r="18" fill="#fff"/>
  <circle cx="186" cy="210" r="14" fill="#fff"/>
  <circle cx="326" cy="210" r="14" fill="#fff"/>
  <circle cx="146" cy="160" r="12" fill="#fff"/>
  <circle cx="216" cy="150" r="12" fill="#fff"/>
  <circle cx="296" cy="150" r="12" fill="#fff"/>
  <circle cx="366" cy="160" r="12" fill="#fff"/>
  <circle cx="256" cy="360" r="16" fill="#fff" opacity="0.6"/>
</svg>
